<svg width="16" height="16" viewBox="0 0 16 16" fill="none" xmlns="http://www.w3.org/2000/svg">
<path d="M7.99984 6C8.53027 6 9.03898 6.21071 9.41405 6.58579C9.78912 6.96086 9.99984 7.46957 9.99984 8C9.99984 8.53043 9.78912 9.03914 9.41405 9.41421C9.03898 9.78929 8.53027 10 7.99984 10C7.4694 10 6.9607 9.78929 6.58562 9.41421C6.21055 9.03914 5.99984 8.53043 5.99984 8C5.99984 7.46957 6.21055 6.96086 6.58562 6.58579C6.9607 6.21071 7.4694 6 7.99984 6ZM7.99984 3C11.3332 3 14.1798 5.07333 15.3332 8C14.1798 10.9267 11.3332 13 7.99984 13C4.6665 13 1.81984 10.9267 0.666504 8C1.81984 5.07333 4.6665 3 7.99984 3ZM2.11984 8C2.65867 9.10021 3.49537 10.0272 4.53482 10.6755C5.57427 11.3238 6.77477 11.6675 7.99984 11.6675C9.22491 11.6675 10.4254 11.3238 11.4649 10.6755C12.5043 10.0272 13.341 9.10021 13.8798 8C13.341 6.8998 12.5043 5.97283 11.4649 5.3245C10.4254 4.67616 9.22491 4.33245 7.99984 4.33245C6.77477 4.33245 5.57427 4.67616 4.53482 5.3245C3.49537 5.97283 2.65867 6.8998 2.11984 8Z" fill="#E59E4A"/>
</svg>
