<svg width="16" height="16" viewBox="0 0 16 16" fill="none" xmlns="http://www.w3.org/2000/svg">
<path d="M7.99977 12.6666C8.63043 12.6666 9.20643 12.5979 9.73177 12.4792L8.56043 11.3079C8.37843 11.3219 8.19377 11.3332 7.99977 11.3332C4.43243 11.3332 3.05043 8.76923 2.71577 7.9999C2.96664 7.43887 3.30608 6.92183 3.7211 6.46856L2.7891 5.53656C1.76377 6.6479 1.3751 7.76723 1.36777 7.78923C1.32207 7.92619 1.32207 8.07428 1.36777 8.21123C1.38177 8.25523 2.9111 12.6666 7.99977 12.6666ZM7.99977 3.33323C6.7751 3.33323 5.7691 3.59723 4.93043 3.98723L2.4711 1.52856L1.52843 2.47123L13.5284 14.4712L14.4711 13.5286L12.2584 11.3159C14.0011 10.0152 14.6231 8.23923 14.6324 8.21123C14.6781 8.07428 14.6781 7.92619 14.6324 7.78923C14.6178 7.74456 13.0884 3.33323 7.99977 3.33323ZM11.3144 10.3719L9.79444 8.8519C9.9211 8.5919 9.99977 8.3059 9.99977 7.9999C9.99977 6.9059 9.09377 5.9999 7.99977 5.9999C7.69377 5.9999 7.40777 6.07856 7.14843 6.2059L5.9431 5.00056C6.60491 4.77401 7.30028 4.66108 7.99977 4.66656C11.5671 4.66656 12.9491 7.23056 13.2838 7.9999C13.0824 8.46123 12.5064 9.56123 11.3144 10.3719Z" fill="#E59E4A"/>
</svg>
