<svg width="30" height="31" viewBox="0 0 30 31" fill="none" xmlns="http://www.w3.org/2000/svg">
<path d="M20 18H10C9.66848 18 9.35054 18.1317 9.11612 18.3661C8.8817 18.6005 8.75 18.9185 8.75 19.25C8.75 19.5815 8.8817 19.8995 9.11612 20.1339C9.35054 20.3683 9.66848 20.5 10 20.5H20C20.3315 20.5 20.6495 20.3683 20.8839 20.1339C21.1183 19.8995 21.25 19.5815 21.25 19.25C21.25 18.9185 21.1183 18.6005 20.8839 18.3661C20.6495 18.1317 20.3315 18 20 18ZM20 13H12.5C12.1685 13 11.8505 13.1317 11.6161 13.3661C11.3817 13.6005 11.25 13.9185 11.25 14.25C11.25 14.5815 11.3817 14.8995 11.6161 15.1339C11.8505 15.3683 12.1685 15.5 12.5 15.5H20C20.3315 15.5 20.6495 15.3683 20.8839 15.1339C21.1183 14.8995 21.25 14.5815 21.25 14.25C21.25 13.9185 21.1183 13.6005 20.8839 13.3661C20.6495 13.1317 20.3315 13 20 13ZM25 5.5H21.25V4.25C21.25 3.91848 21.1183 3.60054 20.8839 3.36612C20.6495 3.1317 20.3315 3 20 3C19.6685 3 19.3505 3.1317 19.1161 3.36612C18.8817 3.60054 18.75 3.91848 18.75 4.25V5.5H16.25V4.25C16.25 3.91848 16.1183 3.60054 15.8839 3.36612C15.6495 3.1317 15.3315 3 15 3C14.6685 3 14.3505 3.1317 14.1161 3.36612C13.8817 3.60054 13.75 3.91848 13.75 4.25V5.5H11.25V4.25C11.25 3.91848 11.1183 3.60054 10.8839 3.36612C10.6495 3.1317 10.3315 3 10 3C9.66848 3 9.35054 3.1317 9.11612 3.36612C8.8817 3.60054 8.75 3.91848 8.75 4.25V5.5H5C4.66848 5.5 4.35054 5.6317 4.11612 5.86612C3.8817 6.10054 3.75 6.41848 3.75 6.75V24.25C3.75 25.2446 4.14509 26.1984 4.84835 26.9017C5.55161 27.6049 6.50544 28 7.5 28H22.5C23.4946 28 24.4484 27.6049 25.1517 26.9017C25.8549 26.1984 26.25 25.2446 26.25 24.25V6.75C26.25 6.41848 26.1183 6.10054 25.8839 5.86612C25.6495 5.6317 25.3315 5.5 25 5.5ZM23.75 24.25C23.75 24.5815 23.6183 24.8995 23.3839 25.1339C23.1495 25.3683 22.8315 25.5 22.5 25.5H7.5C7.16848 25.5 6.85054 25.3683 6.61612 25.1339C6.3817 24.8995 6.25 24.5815 6.25 24.25V8H8.75V9.25C8.75 9.58152 8.8817 9.89946 9.11612 10.1339C9.35054 10.3683 9.66848 10.5 10 10.5C10.3315 10.5 10.6495 10.3683 10.8839 10.1339C11.1183 9.89946 11.25 9.58152 11.25 9.25V8H13.75V9.25C13.75 9.58152 13.8817 9.89946 14.1161 10.1339C14.3505 10.3683 14.6685 10.5 15 10.5C15.3315 10.5 15.6495 10.3683 15.8839 10.1339C16.1183 9.89946 16.25 9.58152 16.25 9.25V8H18.75V9.25C18.75 9.58152 18.8817 9.89946 19.1161 10.1339C19.3505 10.3683 19.6685 10.5 20 10.5C20.3315 10.5 20.6495 10.3683 20.8839 10.1339C21.1183 9.89946 21.25 9.58152 21.25 9.25V8H23.75V24.25Z" fill="white"/>
</svg>
