<svg width="30" height="31" viewBox="0 0 30 31" fill="none" xmlns="http://www.w3.org/2000/svg">
<g opacity="0.2">
<path d="M5 23C5 21.6739 5.52678 20.4021 6.46447 19.4645C7.40215 18.5268 8.67392 18 10 18H20C21.3261 18 22.5979 18.5268 23.5355 19.4645C24.4732 20.4021 25 21.6739 25 23C25 23.663 24.7366 24.2989 24.2678 24.7678C23.7989 25.2366 23.163 25.5 22.5 25.5H7.5C6.83696 25.5 6.20107 25.2366 5.73223 24.7678C5.26339 24.2989 5 23.663 5 23Z" stroke="white" stroke-width="3.75" stroke-linejoin="round"/>
<path d="M15 13C17.0711 13 18.75 11.3211 18.75 9.25C18.75 7.17893 17.0711 5.5 15 5.5C12.9289 5.5 11.25 7.17893 11.25 9.25C11.25 11.3211 12.9289 13 15 13Z" stroke="white" stroke-width="3.75"/>
</g>
</svg>
